<svg width="1067" height="163" viewBox="0 0 1067 163" fill="none" xmlns="http://www.w3.org/2000/svg">
<path d="M206.508 105.875H185.707V159H158.266V16.8125H205.922C213.799 16.8125 220.928 17.7565 227.309 19.6445C233.689 21.4674 239.158 24.1693 243.715 27.75C248.207 31.3307 251.658 35.7904 254.066 41.1289C256.54 46.4674 257.777 52.6523 257.777 59.6836C257.777 64.7617 257.159 69.3516 255.922 73.4531C254.75 77.4896 253.057 81.1029 250.844 84.293C248.565 87.5482 245.831 90.3802 242.641 92.7891C239.516 95.1979 236 97.2812 232.094 99.0391L262.66 157.73V159H233.266L206.508 105.875ZM185.707 83.6094H206.02C210.251 83.6094 213.962 83.0234 217.152 81.8516C220.408 80.6146 223.044 78.8568 225.062 76.5781C226.755 74.7552 228.025 72.5742 228.871 70.0352C229.783 67.4961 230.238 64.6641 230.238 61.5391C230.238 57.763 229.652 54.4427 228.48 51.5781C227.374 48.6484 225.681 46.2396 223.402 44.3516C221.384 42.6589 218.91 41.3568 215.98 40.4453C213.051 39.5339 209.698 39.0781 205.922 39.0781H185.707V83.6094ZM357.602 98.3555C357.602 104.475 357.048 110.302 355.941 115.836C354.835 121.305 353.24 126.383 351.156 131.07C348.943 135.758 346.208 140.055 342.953 143.961C339.698 147.867 335.987 151.122 331.82 153.727C328.044 156.005 323.878 157.763 319.32 159C314.828 160.302 309.978 160.953 304.77 160.953C299.236 160.953 294.125 160.237 289.438 158.805C284.75 157.372 280.486 155.354 276.645 152.75C272.868 150.016 269.483 146.728 266.488 142.887C263.493 138.98 260.987 134.586 258.969 129.703C257.146 125.211 255.746 120.328 254.77 115.055C253.858 109.781 253.402 104.215 253.402 98.3555V77.6523C253.402 71.4023 253.923 65.4779 254.965 59.8789C256.072 54.2799 257.667 49.1042 259.75 44.3516C261.768 39.8594 264.21 35.7904 267.074 32.1445C270.004 28.4987 273.357 25.3737 277.133 22.7695C280.844 20.2305 285.01 18.2773 289.633 16.9102C294.255 15.543 299.268 14.8594 304.672 14.8594C310.141 14.8594 315.251 15.5755 320.004 17.0078C324.822 18.375 329.151 20.3607 332.992 22.9648C336.833 25.4388 340.186 28.4336 343.051 31.9492C345.98 35.4648 348.487 39.3385 350.57 43.5703C352.849 48.388 354.574 53.6615 355.746 59.3906C356.983 65.1198 357.602 71.207 357.602 77.6523V98.3555ZM329.77 77.457C329.77 73.8112 329.574 70.3607 329.184 67.1055C328.858 63.7852 328.305 60.7253 327.523 57.9258C326.547 54.4102 325.245 51.2852 323.617 48.5508C321.99 45.7513 320.069 43.4727 317.855 41.7148C316.098 40.4128 314.112 39.4036 311.898 38.6875C309.75 37.9714 307.341 37.6133 304.672 37.6133C302.133 37.6133 299.822 37.9388 297.738 38.5898C295.72 39.2409 293.897 40.1849 292.27 41.4219C290.056 43.2448 288.168 45.5234 286.605 48.2578C285.108 50.9922 283.936 54.1823 283.09 57.8281C282.439 60.6276 281.951 63.6875 281.625 67.0078C281.365 70.3281 281.234 73.8112 281.234 77.457V98.3555C281.234 101.806 281.365 105.126 281.625 108.316C281.885 111.507 282.341 114.469 282.992 117.203C283.708 120.654 284.75 123.811 286.117 126.676C287.549 129.475 289.21 131.754 291.098 133.512C292.855 135.074 294.841 136.279 297.055 137.125C299.333 137.971 301.905 138.395 304.77 138.395C307.504 138.395 310.01 138.004 312.289 137.223C314.568 136.441 316.586 135.302 318.344 133.805C320.557 131.982 322.413 129.703 323.91 126.969C325.473 124.169 326.71 121.012 327.621 117.496C328.337 114.762 328.858 111.767 329.184 108.512C329.574 105.257 329.77 101.871 329.77 98.3555V77.457ZM457.23 114.469C456.775 121.63 455.212 128.076 452.543 133.805C449.939 139.534 446.423 144.417 441.996 148.453C437.569 152.49 432.296 155.615 426.176 157.828C420.056 159.977 413.285 161.051 405.863 161.051C400.004 161.051 394.568 160.302 389.555 158.805C384.607 157.242 380.147 155.029 376.176 152.164C372.53 149.495 369.275 146.272 366.41 142.496C363.611 138.72 361.234 134.553 359.281 129.996C357.393 125.439 355.928 120.426 354.887 114.957C353.91 109.488 353.422 103.694 353.422 97.5742V78.4336C353.422 72.7044 353.878 67.2682 354.789 62.125C355.701 56.9167 357.068 52.099 358.891 47.6719C360.974 42.2682 363.708 37.4505 367.094 33.2188C370.479 28.987 374.32 25.4062 378.617 22.4766C382.458 20.0026 386.658 18.1146 391.215 16.8125C395.837 15.4453 400.785 14.7617 406.059 14.7617C413.871 14.7617 420.805 15.8685 426.859 18.082C432.979 20.2956 438.188 23.4531 442.484 27.5547C446.781 31.6562 450.167 36.6693 452.641 42.5938C455.115 48.5182 456.677 55.1914 457.328 62.6133H429.984C429.724 58.3815 429.073 54.6706 428.031 51.4805C427.055 48.2904 425.622 45.6211 423.734 43.4727C421.781 41.3893 419.34 39.8268 416.41 38.7852C413.546 37.6784 410.095 37.125 406.059 37.125C403.91 37.125 401.892 37.3529 400.004 37.8086C398.181 38.2643 396.488 38.9479 394.926 39.8594C392.257 41.4219 389.978 43.668 388.09 46.5977C386.267 49.4622 384.802 52.8151 383.695 56.6562C382.849 59.651 382.23 62.9714 381.84 66.6172C381.449 70.1979 381.254 74.0716 381.254 78.2383V97.5742C381.254 103.238 381.547 108.316 382.133 112.809C382.784 117.236 383.76 121.109 385.062 124.43C385.974 126.708 387.048 128.727 388.285 130.484C389.587 132.242 391.052 133.707 392.68 134.879C394.438 136.181 396.391 137.158 398.539 137.809C400.753 138.395 403.194 138.688 405.863 138.688C409.444 138.688 412.667 138.232 415.531 137.32C418.396 136.409 420.837 134.977 422.855 133.023C424.874 131.07 426.469 128.564 427.641 125.504C428.812 122.444 429.529 118.766 429.789 114.469H457.23ZM501 100.602L485.961 117.105V159H458.422V16.8125H485.961V81.9492L498.852 64.5664L533.422 16.8125H567.016L519.164 79.7031L568.773 159H536.156L501 100.602ZM591.938 159L548.969 16.8125H579.242L603.363 109.684L605.805 119.254L608.441 109.586L632.66 16.8125H662.934L619.867 159H591.938ZM664.906 16.8125H747.133V38.9805H719.398V136.93H747.133V159H664.906V136.93H691.957V38.9805H664.906V16.8125ZM758.773 159V16.8125H806.527C814.275 16.8125 821.306 17.5938 827.621 19.1562C834.001 20.7188 839.438 23.0951 843.93 26.2852C848.422 29.4753 851.872 33.5117 854.281 38.3945C856.755 43.2773 857.992 49.0391 857.992 55.6797C857.927 59.9766 857.146 64.0456 855.648 67.8867C854.216 71.6628 852.068 74.9831 849.203 77.8477C847.641 79.4102 845.85 80.8424 843.832 82.1445C841.879 83.4466 839.698 84.5534 837.289 85.4648V85.5625C841.977 86.8646 845.688 88.5247 848.422 90.543C851.221 92.5612 853.565 94.9049 855.453 97.5742C857.406 100.439 858.839 103.564 859.75 106.949C860.727 110.27 861.215 113.72 861.215 117.301C861.215 124.137 860.043 130.159 857.699 135.367C855.355 140.576 852.003 144.938 847.641 148.453C843.279 151.969 837.973 154.605 831.723 156.363C825.473 158.121 818.441 159 810.629 159H758.773ZM786.312 96.3047V136.832H810.727C814.307 136.832 817.497 136.376 820.297 135.465C823.161 134.553 825.538 133.316 827.426 131.754C829.509 129.996 831.072 127.88 832.113 125.406C833.22 122.932 833.773 120.165 833.773 117.105C833.773 113.915 833.35 111.051 832.504 108.512C831.723 105.973 830.453 103.824 828.695 102.066C826.938 100.243 824.659 98.8438 821.859 97.8672C819.06 96.8906 815.74 96.3698 811.898 96.3047H786.312ZM786.312 76.4805H806.723C810.889 76.4154 814.568 75.9271 817.758 75.0156C820.948 74.0391 823.52 72.6068 825.473 70.7188C827.1 69.2214 828.337 67.3984 829.184 65.25C830.095 63.1016 830.551 60.6602 830.551 57.9258C830.551 55.0612 830.16 52.5547 829.379 50.4062C828.663 48.2578 827.556 46.4674 826.059 45.0352C824.105 43.0169 821.469 41.5521 818.148 40.6406C814.893 39.7292 811.052 39.2409 806.625 39.1758H786.312V76.4805ZM946.586 96.6953H888.188V136.832H956.449V159H860.648V16.8125H956.156V39.1758H888.188V75.0156H946.586V96.6953ZM1033.03 121.891C1033.03 119.352 1032.58 116.975 1031.66 114.762C1030.82 112.548 1029.35 110.465 1027.27 108.512C1025.12 106.624 1022.32 104.898 1018.87 103.336C1015.49 101.708 1011.25 100.211 1006.18 98.8438C998.298 96.6953 991.365 94.0911 985.375 91.0312C979.451 87.9714 974.6 84.6185 970.824 80.9727C967.048 77.3268 964.184 73.2904 962.23 68.8633C960.342 64.4362 959.398 59.6185 959.398 54.4102C959.398 48.4206 960.668 42.9844 963.207 38.1016C965.746 33.2188 969.262 29.0521 973.754 25.6016C978.246 22.151 983.552 19.5143 989.672 17.6914C995.792 15.8034 1002.43 14.8594 1009.59 14.8594C1017.02 14.8594 1023.79 15.9336 1029.91 18.082C1036.09 20.2305 1041.4 23.2253 1045.82 27.0664C1050.25 30.9727 1053.7 35.5951 1056.18 40.9336C1058.65 46.2721 1059.89 52.1315 1059.89 58.5117H1033.13C1033 55.3216 1032.41 52.3919 1031.37 49.7227C1030.39 47.0534 1028.93 44.7422 1026.98 42.7891C1024.96 40.901 1022.45 39.4362 1019.46 38.3945C1016.53 37.2878 1013.08 36.7344 1009.11 36.7344C1005.46 36.7344 1002.2 37.1901 999.34 38.1016C996.54 38.9479 994.164 40.1523 992.211 41.7148C990.258 43.3424 988.76 45.263 987.719 47.4766C986.742 49.625 986.254 51.9688 986.254 54.5078C986.254 57.1771 986.905 59.5859 988.207 61.7344C989.574 63.8828 991.527 65.8034 994.066 67.4961C996.605 69.2539 999.665 70.849 1003.25 72.2812C1006.89 73.7135 1010.99 75.0482 1015.55 76.2852C1020.43 77.6523 1025.09 79.3125 1029.52 81.2656C1033.94 83.2188 1038.01 85.4648 1041.72 88.0039C1047.32 92.1706 1051.78 97.0208 1055.1 102.555C1058.42 108.089 1060.08 114.469 1060.08 121.695C1060.08 127.945 1058.81 133.512 1056.27 138.395C1053.8 143.212 1050.35 147.281 1045.92 150.602C1041.49 153.987 1036.22 156.559 1030.1 158.316C1023.98 160.009 1017.31 160.855 1010.08 160.855C1002.99 160.855 995.954 159.814 988.988 157.73C982.087 155.582 976.065 152.457 970.922 148.355C966.039 144.319 962.165 139.566 959.301 134.098C956.501 128.629 955.102 122.216 955.102 114.859H982.055C982.185 119.156 982.934 122.835 984.301 125.895C985.668 128.954 987.589 131.461 990.062 133.414C992.471 135.367 995.368 136.799 998.754 137.711C1002.2 138.622 1005.98 139.078 1010.08 139.078C1013.73 139.078 1016.95 138.655 1019.75 137.809C1022.61 136.962 1025.02 135.79 1026.98 134.293C1028.93 132.796 1030.43 131.005 1031.47 128.922C1032.51 126.773 1033.03 124.43 1033.03 121.891Z" fill="#DE951B"/>
<path d="M120.598 60.6344L88.4634 93L98.2927 120.097L126.646 126.495L155 132.892L142.902 98.2688L120.598 60.6344Z" fill="#E9BF79"/>
<path d="M41.5854 98.2688L15.878 65.9032L0 98.2688L15.878 141.925L41.5854 98.2688Z" fill="#DFB56F"/>
<path d="M46.878 27.5161L15.878 65.9032L41.5854 98.2688L88.4634 93L120.598 60.6344L98.2927 23L46.878 27.5161Z" fill="#DE951B"/>
<path d="M88.4634 93L41.5854 98.2688L15.878 141.925L50.6585 163L98.2927 155.473V120.097L88.4634 93Z" fill="#FFCC76"/>
<path d="M98.2927 120.097V155.473L155 132.892L126.646 126.495L98.2927 120.097Z" fill="#DFB56F"/>
</svg>
