<svg width="307" height="307" viewBox="0 0 307 307" fill="none" xmlns="http://www.w3.org/2000/svg">
<circle cx="153.5" cy="153.5" r="153.5" fill="#DE951B"/>
<path d="M210.5 110L168 153L181 189L218.5 197.5L256 206L240 160L210.5 110Z" fill="#E0E0E0"/>
<path d="M106 160L72 117L51 160L72 218L106 160Z" fill="#EBEBEB"/>
<path d="M113 66L72 117L106 160L168 153L210.5 110L181 60L113 66Z" fill="#F7F7F7"/>
<path d="M168 153L106 160L72 218L118 246L181 236V189L168 153Z" fill="#BDBDBD"/>
<path d="M181 189V236L256 206L218.5 197.5L181 189Z" fill="#A1A1A1"/>
</svg>
